<?xml version="1.0" encoding="utf-8" standalone="no"?>
<!DOCTYPE svg PUBLIC "-//W3C//DTD SVG 1.1//EN"
  "http://www.w3.org/Graphics/SVG/1.1/DTD/svg11.dtd">
<!-- Created with matplotlib (https://matplotlib.org/) -->
<svg height="424.669562pt" version="1.1" viewBox="0 0 633.731705 424.669562" width="633.731705pt" xmlns="http://www.w3.org/2000/svg" xmlns:xlink="http://www.w3.org/1999/xlink">
 <defs>
  <style type="text/css">
*{stroke-linecap:butt;stroke-linejoin:round;}
  </style>
 </defs>
 <g id="figure_1">
  <g id="patch_1">
   <path d="M 0 424.669562 
L 633.731705 424.669562 
L 633.731705 0 
L 0 0 
z
" style="fill:#ffffff;"/>
  </g>
  <g id="axes_1">
   <g id="patch_2">
    <path d="M 46.965625 375.9155 
L 351.329261 375.9155 
L 351.329261 49.7555 
L 46.965625 49.7555 
z
" style="fill:#ffffff;"/>
   </g>
   <g id="patch_3">
    <path clip-path="url(#pae6d0c1bea)" d="M 107.838352 375.9155 
L 168.71108 375.9155 
L 168.71108 71.60822 
L 107.838352 71.60822 
z
" style="fill:#8b0000;opacity:0.5;"/>
   </g>
   <g id="patch_4">
    <path clip-path="url(#pae6d0c1bea)" d="M 229.583807 375.9155 
L 290.456534 375.9155 
L 290.456534 68.99894 
L 229.583807 68.99894 
z
" style="fill:#8b0000;opacity:0.5;"/>
   </g>
   <g id="matplotlib.axis_1">
    <g id="xtick_1">
     <g id="line2d_1">
      <defs>
       <path d="M 0 0 
L 0 3.5 
" id="m7477c193e9" style="stroke:#000000;stroke-width:0.8;"/>
      </defs>
      <g>
       <use style="stroke:#000000;stroke-width:0.8;" x="138.274716" xlink:href="#m7477c193e9" y="375.9155"/>
      </g>
     </g>
     <g id="text_1">
      <!-- Uncertain -->
      <defs>
       <path d="M 8.6875 72.90625 
L 18.609375 72.90625 
L 18.609375 28.609375 
Q 18.609375 16.890625 22.84375 11.734375 
Q 27.09375 6.59375 36.625 6.59375 
Q 46.09375 6.59375 50.34375 11.734375 
Q 54.59375 16.890625 54.59375 28.609375 
L 54.59375 72.90625 
L 64.5 72.90625 
L 64.5 27.390625 
Q 64.5 13.140625 57.4375 5.859375 
Q 50.390625 -1.421875 36.625 -1.421875 
Q 22.796875 -1.421875 15.734375 5.859375 
Q 8.6875 13.140625 8.6875 27.390625 
z
" id="DejaVuSans-85"/>
       <path d="M 54.890625 33.015625 
L 54.890625 0 
L 45.90625 0 
L 45.90625 32.71875 
Q 45.90625 40.484375 42.875 44.328125 
Q 39.84375 48.1875 33.796875 48.1875 
Q 26.515625 48.1875 22.3125 43.546875 
Q 18.109375 38.921875 18.109375 30.90625 
L 18.109375 0 
L 9.078125 0 
L 9.078125 54.6875 
L 18.109375 54.6875 
L 18.109375 46.1875 
Q 21.34375 51.125 25.703125 53.5625 
Q 30.078125 56 35.796875 56 
Q 45.21875 56 50.046875 50.171875 
Q 54.890625 44.34375 54.890625 33.015625 
z
" id="DejaVuSans-110"/>
       <path d="M 48.78125 52.59375 
L 48.78125 44.1875 
Q 44.96875 46.296875 41.140625 47.34375 
Q 37.3125 48.390625 33.40625 48.390625 
Q 24.65625 48.390625 19.8125 42.84375 
Q 14.984375 37.3125 14.984375 27.296875 
Q 14.984375 17.28125 19.8125 11.734375 
Q 24.65625 6.203125 33.40625 6.203125 
Q 37.3125 6.203125 41.140625 7.25 
Q 44.96875 8.296875 48.78125 10.40625 
L 48.78125 2.09375 
Q 45.015625 0.34375 40.984375 -0.53125 
Q 36.96875 -1.421875 32.421875 -1.421875 
Q 20.0625 -1.421875 12.78125 6.34375 
Q 5.515625 14.109375 5.515625 27.296875 
Q 5.515625 40.671875 12.859375 48.328125 
Q 20.21875 56 33.015625 56 
Q 37.15625 56 41.109375 55.140625 
Q 45.0625 54.296875 48.78125 52.59375 
z
" id="DejaVuSans-99"/>
       <path d="M 56.203125 29.59375 
L 56.203125 25.203125 
L 14.890625 25.203125 
Q 15.484375 15.921875 20.484375 11.0625 
Q 25.484375 6.203125 34.421875 6.203125 
Q 39.59375 6.203125 44.453125 7.46875 
Q 49.3125 8.734375 54.109375 11.28125 
L 54.109375 2.78125 
Q 49.265625 0.734375 44.1875 -0.34375 
Q 39.109375 -1.421875 33.890625 -1.421875 
Q 20.796875 -1.421875 13.15625 6.1875 
Q 5.515625 13.8125 5.515625 26.8125 
Q 5.515625 40.234375 12.765625 48.109375 
Q 20.015625 56 32.328125 56 
Q 43.359375 56 49.78125 48.890625 
Q 56.203125 41.796875 56.203125 29.59375 
z
M 47.21875 32.234375 
Q 47.125 39.59375 43.09375 43.984375 
Q 39.0625 48.390625 32.421875 48.390625 
Q 24.90625 48.390625 20.390625 44.140625 
Q 15.875 39.890625 15.1875 32.171875 
z
" id="DejaVuSans-101"/>
       <path d="M 41.109375 46.296875 
Q 39.59375 47.171875 37.8125 47.578125 
Q 36.03125 48 33.890625 48 
Q 26.265625 48 22.1875 43.046875 
Q 18.109375 38.09375 18.109375 28.8125 
L 18.109375 0 
L 9.078125 0 
L 9.078125 54.6875 
L 18.109375 54.6875 
L 18.109375 46.1875 
Q 20.953125 51.171875 25.484375 53.578125 
Q 30.03125 56 36.53125 56 
Q 37.453125 56 38.578125 55.875 
Q 39.703125 55.765625 41.0625 55.515625 
z
" id="DejaVuSans-114"/>
       <path d="M 18.3125 70.21875 
L 18.3125 54.6875 
L 36.8125 54.6875 
L 36.8125 47.703125 
L 18.3125 47.703125 
L 18.3125 18.015625 
Q 18.3125 11.328125 20.140625 9.421875 
Q 21.96875 7.515625 27.59375 7.515625 
L 36.8125 7.515625 
L 36.8125 0 
L 27.59375 0 
Q 17.1875 0 13.234375 3.875 
Q 9.28125 7.765625 9.28125 18.015625 
L 9.28125 47.703125 
L 2.6875 47.703125 
L 2.6875 54.6875 
L 9.28125 54.6875 
L 9.28125 70.21875 
z
" id="DejaVuSans-116"/>
       <path d="M 34.28125 27.484375 
Q 23.390625 27.484375 19.1875 25 
Q 14.984375 22.515625 14.984375 16.5 
Q 14.984375 11.71875 18.140625 8.90625 
Q 21.296875 6.109375 26.703125 6.109375 
Q 34.1875 6.109375 38.703125 11.40625 
Q 43.21875 16.703125 43.21875 25.484375 
L 43.21875 27.484375 
z
M 52.203125 31.203125 
L 52.203125 0 
L 43.21875 0 
L 43.21875 8.296875 
Q 40.140625 3.328125 35.546875 0.953125 
Q 30.953125 -1.421875 24.3125 -1.421875 
Q 15.921875 -1.421875 10.953125 3.296875 
Q 6 8.015625 6 15.921875 
Q 6 25.140625 12.171875 29.828125 
Q 18.359375 34.515625 30.609375 34.515625 
L 43.21875 34.515625 
L 43.21875 35.40625 
Q 43.21875 41.609375 39.140625 45 
Q 35.0625 48.390625 27.6875 48.390625 
Q 23 48.390625 18.546875 47.265625 
Q 14.109375 46.140625 10.015625 43.890625 
L 10.015625 52.203125 
Q 14.9375 54.109375 19.578125 55.046875 
Q 24.21875 56 28.609375 56 
Q 40.484375 56 46.34375 49.84375 
Q 52.203125 43.703125 52.203125 31.203125 
z
" id="DejaVuSans-97"/>
       <path d="M 9.421875 54.6875 
L 18.40625 54.6875 
L 18.40625 0 
L 9.421875 0 
z
M 9.421875 75.984375 
L 18.40625 75.984375 
L 18.40625 64.59375 
L 9.421875 64.59375 
z
" id="DejaVuSans-105"/>
      </defs>
      <g transform="translate(113.98331 390.513937)scale(0.1 -0.1)">
       <use xlink:href="#DejaVuSans-85"/>
       <use x="73.193359" xlink:href="#DejaVuSans-110"/>
       <use x="136.572266" xlink:href="#DejaVuSans-99"/>
       <use x="191.552734" xlink:href="#DejaVuSans-101"/>
       <use x="253.076172" xlink:href="#DejaVuSans-114"/>
       <use x="294.189453" xlink:href="#DejaVuSans-116"/>
       <use x="333.398438" xlink:href="#DejaVuSans-97"/>
       <use x="394.677734" xlink:href="#DejaVuSans-105"/>
       <use x="422.460938" xlink:href="#DejaVuSans-110"/>
      </g>
     </g>
    </g>
    <g id="xtick_2">
     <g id="line2d_2">
      <g>
       <use style="stroke:#000000;stroke-width:0.8;" x="260.02017" xlink:href="#m7477c193e9" y="375.9155"/>
      </g>
     </g>
     <g id="text_2">
      <!-- Certain -->
      <defs>
       <path d="M 64.40625 67.28125 
L 64.40625 56.890625 
Q 59.421875 61.53125 53.78125 63.8125 
Q 48.140625 66.109375 41.796875 66.109375 
Q 29.296875 66.109375 22.65625 58.46875 
Q 16.015625 50.828125 16.015625 36.375 
Q 16.015625 21.96875 22.65625 14.328125 
Q 29.296875 6.6875 41.796875 6.6875 
Q 48.140625 6.6875 53.78125 8.984375 
Q 59.421875 11.28125 64.40625 15.921875 
L 64.40625 5.609375 
Q 59.234375 2.09375 53.4375 0.328125 
Q 47.65625 -1.421875 41.21875 -1.421875 
Q 24.65625 -1.421875 15.125 8.703125 
Q 5.609375 18.84375 5.609375 36.375 
Q 5.609375 53.953125 15.125 64.078125 
Q 24.65625 74.21875 41.21875 74.21875 
Q 47.75 74.21875 53.53125 72.484375 
Q 59.328125 70.75 64.40625 67.28125 
z
" id="DejaVuSans-67"/>
      </defs>
      <g transform="translate(241.814702 390.513937)scale(0.1 -0.1)">
       <use xlink:href="#DejaVuSans-67"/>
       <use x="69.824219" xlink:href="#DejaVuSans-101"/>
       <use x="131.347656" xlink:href="#DejaVuSans-114"/>
       <use x="172.460938" xlink:href="#DejaVuSans-116"/>
       <use x="211.669922" xlink:href="#DejaVuSans-97"/>
       <use x="272.949219" xlink:href="#DejaVuSans-105"/>
       <use x="300.732422" xlink:href="#DejaVuSans-110"/>
      </g>
     </g>
    </g>
    <g id="text_3">
     <!-- How workers feel about having anonymity  -->
     <defs>
      <path d="M 9.8125 72.90625 
L 19.671875 72.90625 
L 19.671875 43.015625 
L 55.515625 43.015625 
L 55.515625 72.90625 
L 65.375 72.90625 
L 65.375 0 
L 55.515625 0 
L 55.515625 34.71875 
L 19.671875 34.71875 
L 19.671875 0 
L 9.8125 0 
z
" id="DejaVuSans-72"/>
      <path d="M 30.609375 48.390625 
Q 23.390625 48.390625 19.1875 42.75 
Q 14.984375 37.109375 14.984375 27.296875 
Q 14.984375 17.484375 19.15625 11.84375 
Q 23.34375 6.203125 30.609375 6.203125 
Q 37.796875 6.203125 41.984375 11.859375 
Q 46.1875 17.53125 46.1875 27.296875 
Q 46.1875 37.015625 41.984375 42.703125 
Q 37.796875 48.390625 30.609375 48.390625 
z
M 30.609375 56 
Q 42.328125 56 49.015625 48.375 
Q 55.71875 40.765625 55.71875 27.296875 
Q 55.71875 13.875 49.015625 6.21875 
Q 42.328125 -1.421875 30.609375 -1.421875 
Q 18.84375 -1.421875 12.171875 6.21875 
Q 5.515625 13.875 5.515625 27.296875 
Q 5.515625 40.765625 12.171875 48.375 
Q 18.84375 56 30.609375 56 
z
" id="DejaVuSans-111"/>
      <path d="M 4.203125 54.6875 
L 13.1875 54.6875 
L 24.421875 12.015625 
L 35.59375 54.6875 
L 46.1875 54.6875 
L 57.421875 12.015625 
L 68.609375 54.6875 
L 77.59375 54.6875 
L 63.28125 0 
L 52.6875 0 
L 40.921875 44.828125 
L 29.109375 0 
L 18.5 0 
z
" id="DejaVuSans-119"/>
      <path id="DejaVuSans-32"/>
      <path d="M 9.078125 75.984375 
L 18.109375 75.984375 
L 18.109375 31.109375 
L 44.921875 54.6875 
L 56.390625 54.6875 
L 27.390625 29.109375 
L 57.625 0 
L 45.90625 0 
L 18.109375 26.703125 
L 18.109375 0 
L 9.078125 0 
z
" id="DejaVuSans-107"/>
      <path d="M 44.28125 53.078125 
L 44.28125 44.578125 
Q 40.484375 46.53125 36.375 47.5 
Q 32.28125 48.484375 27.875 48.484375 
Q 21.1875 48.484375 17.84375 46.4375 
Q 14.5 44.390625 14.5 40.28125 
Q 14.5 37.15625 16.890625 35.375 
Q 19.28125 33.59375 26.515625 31.984375 
L 29.59375 31.296875 
Q 39.15625 29.25 43.1875 25.515625 
Q 47.21875 21.78125 47.21875 15.09375 
Q 47.21875 7.46875 41.1875 3.015625 
Q 35.15625 -1.421875 24.609375 -1.421875 
Q 20.21875 -1.421875 15.453125 -0.5625 
Q 10.6875 0.296875 5.421875 2 
L 5.421875 11.28125 
Q 10.40625 8.6875 15.234375 7.390625 
Q 20.0625 6.109375 24.8125 6.109375 
Q 31.15625 6.109375 34.5625 8.28125 
Q 37.984375 10.453125 37.984375 14.40625 
Q 37.984375 18.0625 35.515625 20.015625 
Q 33.0625 21.96875 24.703125 23.78125 
L 21.578125 24.515625 
Q 13.234375 26.265625 9.515625 29.90625 
Q 5.8125 33.546875 5.8125 39.890625 
Q 5.8125 47.609375 11.28125 51.796875 
Q 16.75 56 26.8125 56 
Q 31.78125 56 36.171875 55.265625 
Q 40.578125 54.546875 44.28125 53.078125 
z
" id="DejaVuSans-115"/>
      <path d="M 37.109375 75.984375 
L 37.109375 68.5 
L 28.515625 68.5 
Q 23.6875 68.5 21.796875 66.546875 
Q 19.921875 64.59375 19.921875 59.515625 
L 19.921875 54.6875 
L 34.71875 54.6875 
L 34.71875 47.703125 
L 19.921875 47.703125 
L 19.921875 0 
L 10.890625 0 
L 10.890625 47.703125 
L 2.296875 47.703125 
L 2.296875 54.6875 
L 10.890625 54.6875 
L 10.890625 58.5 
Q 10.890625 67.625 15.140625 71.796875 
Q 19.390625 75.984375 28.609375 75.984375 
z
" id="DejaVuSans-102"/>
      <path d="M 9.421875 75.984375 
L 18.40625 75.984375 
L 18.40625 0 
L 9.421875 0 
z
" id="DejaVuSans-108"/>
      <path d="M 48.6875 27.296875 
Q 48.6875 37.203125 44.609375 42.84375 
Q 40.53125 48.484375 33.40625 48.484375 
Q 26.265625 48.484375 22.1875 42.84375 
Q 18.109375 37.203125 18.109375 27.296875 
Q 18.109375 17.390625 22.1875 11.75 
Q 26.265625 6.109375 33.40625 6.109375 
Q 40.53125 6.109375 44.609375 11.75 
Q 48.6875 17.390625 48.6875 27.296875 
z
M 18.109375 46.390625 
Q 20.953125 51.265625 25.265625 53.625 
Q 29.59375 56 35.59375 56 
Q 45.5625 56 51.78125 48.09375 
Q 58.015625 40.1875 58.015625 27.296875 
Q 58.015625 14.40625 51.78125 6.484375 
Q 45.5625 -1.421875 35.59375 -1.421875 
Q 29.59375 -1.421875 25.265625 0.953125 
Q 20.953125 3.328125 18.109375 8.203125 
L 18.109375 0 
L 9.078125 0 
L 9.078125 75.984375 
L 18.109375 75.984375 
z
" id="DejaVuSans-98"/>
      <path d="M 8.5 21.578125 
L 8.5 54.6875 
L 17.484375 54.6875 
L 17.484375 21.921875 
Q 17.484375 14.15625 20.5 10.265625 
Q 23.53125 6.390625 29.59375 6.390625 
Q 36.859375 6.390625 41.078125 11.03125 
Q 45.3125 15.671875 45.3125 23.6875 
L 45.3125 54.6875 
L 54.296875 54.6875 
L 54.296875 0 
L 45.3125 0 
L 45.3125 8.40625 
Q 42.046875 3.421875 37.71875 1 
Q 33.40625 -1.421875 27.6875 -1.421875 
Q 18.265625 -1.421875 13.375 4.4375 
Q 8.5 10.296875 8.5 21.578125 
z
M 31.109375 56 
z
" id="DejaVuSans-117"/>
      <path d="M 54.890625 33.015625 
L 54.890625 0 
L 45.90625 0 
L 45.90625 32.71875 
Q 45.90625 40.484375 42.875 44.328125 
Q 39.84375 48.1875 33.796875 48.1875 
Q 26.515625 48.1875 22.3125 43.546875 
Q 18.109375 38.921875 18.109375 30.90625 
L 18.109375 0 
L 9.078125 0 
L 9.078125 75.984375 
L 18.109375 75.984375 
L 18.109375 46.1875 
Q 21.34375 51.125 25.703125 53.5625 
Q 30.078125 56 35.796875 56 
Q 45.21875 56 50.046875 50.171875 
Q 54.890625 44.34375 54.890625 33.015625 
z
" id="DejaVuSans-104"/>
      <path d="M 2.984375 54.6875 
L 12.5 54.6875 
L 29.59375 8.796875 
L 46.6875 54.6875 
L 56.203125 54.6875 
L 35.6875 0 
L 23.484375 0 
z
" id="DejaVuSans-118"/>
      <path d="M 45.40625 27.984375 
Q 45.40625 37.75 41.375 43.109375 
Q 37.359375 48.484375 30.078125 48.484375 
Q 22.859375 48.484375 18.828125 43.109375 
Q 14.796875 37.75 14.796875 27.984375 
Q 14.796875 18.265625 18.828125 12.890625 
Q 22.859375 7.515625 30.078125 7.515625 
Q 37.359375 7.515625 41.375 12.890625 
Q 45.40625 18.265625 45.40625 27.984375 
z
M 54.390625 6.78125 
Q 54.390625 -7.171875 48.1875 -13.984375 
Q 42 -20.796875 29.203125 -20.796875 
Q 24.46875 -20.796875 20.265625 -20.09375 
Q 16.0625 -19.390625 12.109375 -17.921875 
L 12.109375 -9.1875 
Q 16.0625 -11.328125 19.921875 -12.34375 
Q 23.78125 -13.375 27.78125 -13.375 
Q 36.625 -13.375 41.015625 -8.765625 
Q 45.40625 -4.15625 45.40625 5.171875 
L 45.40625 9.625 
Q 42.625 4.78125 38.28125 2.390625 
Q 33.9375 0 27.875 0 
Q 17.828125 0 11.671875 7.65625 
Q 5.515625 15.328125 5.515625 27.984375 
Q 5.515625 40.671875 11.671875 48.328125 
Q 17.828125 56 27.875 56 
Q 33.9375 56 38.28125 53.609375 
Q 42.625 51.21875 45.40625 46.390625 
L 45.40625 54.6875 
L 54.390625 54.6875 
z
" id="DejaVuSans-103"/>
      <path d="M 32.171875 -5.078125 
Q 28.375 -14.84375 24.75 -17.8125 
Q 21.140625 -20.796875 15.09375 -20.796875 
L 7.90625 -20.796875 
L 7.90625 -13.28125 
L 13.1875 -13.28125 
Q 16.890625 -13.28125 18.9375 -11.515625 
Q 21 -9.765625 23.484375 -3.21875 
L 25.09375 0.875 
L 2.984375 54.6875 
L 12.5 54.6875 
L 29.59375 11.921875 
L 46.6875 54.6875 
L 56.203125 54.6875 
z
" id="DejaVuSans-121"/>
      <path d="M 52 44.1875 
Q 55.375 50.25 60.0625 53.125 
Q 64.75 56 71.09375 56 
Q 79.640625 56 84.28125 50.015625 
Q 88.921875 44.046875 88.921875 33.015625 
L 88.921875 0 
L 79.890625 0 
L 79.890625 32.71875 
Q 79.890625 40.578125 77.09375 44.375 
Q 74.3125 48.1875 68.609375 48.1875 
Q 61.625 48.1875 57.5625 43.546875 
Q 53.515625 38.921875 53.515625 30.90625 
L 53.515625 0 
L 44.484375 0 
L 44.484375 32.71875 
Q 44.484375 40.625 41.703125 44.40625 
Q 38.921875 48.1875 33.109375 48.1875 
Q 26.21875 48.1875 22.15625 43.53125 
Q 18.109375 38.875 18.109375 30.90625 
L 18.109375 0 
L 9.078125 0 
L 9.078125 54.6875 
L 18.109375 54.6875 
L 18.109375 46.1875 
Q 21.1875 51.21875 25.484375 53.609375 
Q 29.78125 56 35.6875 56 
Q 41.65625 56 45.828125 52.96875 
Q 50 49.953125 52 44.1875 
z
" id="DejaVuSans-109"/>
     </defs>
     <g transform="translate(91.618537 404.192062)scale(0.1 -0.1)">
      <use xlink:href="#DejaVuSans-72"/>
      <use x="75.195312" xlink:href="#DejaVuSans-111"/>
      <use x="136.376953" xlink:href="#DejaVuSans-119"/>
      <use x="218.164062" xlink:href="#DejaVuSans-32"/>
      <use x="249.951172" xlink:href="#DejaVuSans-119"/>
      <use x="331.738281" xlink:href="#DejaVuSans-111"/>
      <use x="392.919922" xlink:href="#DejaVuSans-114"/>
      <use x="434.033203" xlink:href="#DejaVuSans-107"/>
      <use x="491.896484" xlink:href="#DejaVuSans-101"/>
      <use x="553.419922" xlink:href="#DejaVuSans-114"/>
      <use x="594.533203" xlink:href="#DejaVuSans-115"/>
      <use x="646.632812" xlink:href="#DejaVuSans-32"/>
      <use x="678.419922" xlink:href="#DejaVuSans-102"/>
      <use x="713.625" xlink:href="#DejaVuSans-101"/>
      <use x="775.148438" xlink:href="#DejaVuSans-101"/>
      <use x="836.671875" xlink:href="#DejaVuSans-108"/>
      <use x="864.455078" xlink:href="#DejaVuSans-32"/>
      <use x="896.242188" xlink:href="#DejaVuSans-97"/>
      <use x="957.521484" xlink:href="#DejaVuSans-98"/>
      <use x="1020.998047" xlink:href="#DejaVuSans-111"/>
      <use x="1082.179688" xlink:href="#DejaVuSans-117"/>
      <use x="1145.558594" xlink:href="#DejaVuSans-116"/>
      <use x="1184.767578" xlink:href="#DejaVuSans-32"/>
      <use x="1216.554688" xlink:href="#DejaVuSans-104"/>
      <use x="1279.933594" xlink:href="#DejaVuSans-97"/>
      <use x="1341.212891" xlink:href="#DejaVuSans-118"/>
      <use x="1400.392578" xlink:href="#DejaVuSans-105"/>
      <use x="1428.175781" xlink:href="#DejaVuSans-110"/>
      <use x="1491.554688" xlink:href="#DejaVuSans-103"/>
      <use x="1555.03125" xlink:href="#DejaVuSans-32"/>
      <use x="1586.818359" xlink:href="#DejaVuSans-97"/>
      <use x="1648.097656" xlink:href="#DejaVuSans-110"/>
      <use x="1711.476562" xlink:href="#DejaVuSans-111"/>
      <use x="1772.658203" xlink:href="#DejaVuSans-110"/>
      <use x="1836.037109" xlink:href="#DejaVuSans-121"/>
      <use x="1895.216797" xlink:href="#DejaVuSans-109"/>
      <use x="1992.628906" xlink:href="#DejaVuSans-105"/>
      <use x="2020.412109" xlink:href="#DejaVuSans-116"/>
      <use x="2059.621094" xlink:href="#DejaVuSans-121"/>
      <use x="2118.800781" xlink:href="#DejaVuSans-32"/>
     </g>
     <!-- if Treatment is Sought -->
     <defs>
      <path d="M -0.296875 72.90625 
L 61.375 72.90625 
L 61.375 64.59375 
L 35.5 64.59375 
L 35.5 0 
L 25.59375 0 
L 25.59375 64.59375 
L -0.296875 64.59375 
z
" id="DejaVuSans-84"/>
      <path d="M 53.515625 70.515625 
L 53.515625 60.890625 
Q 47.90625 63.578125 42.921875 64.890625 
Q 37.9375 66.21875 33.296875 66.21875 
Q 25.25 66.21875 20.875 63.09375 
Q 16.5 59.96875 16.5 54.203125 
Q 16.5 49.359375 19.40625 46.890625 
Q 22.3125 44.4375 30.421875 42.921875 
L 36.375 41.703125 
Q 47.40625 39.59375 52.65625 34.296875 
Q 57.90625 29 57.90625 20.125 
Q 57.90625 9.515625 50.796875 4.046875 
Q 43.703125 -1.421875 29.984375 -1.421875 
Q 24.8125 -1.421875 18.96875 -0.25 
Q 13.140625 0.921875 6.890625 3.21875 
L 6.890625 13.375 
Q 12.890625 10.015625 18.65625 8.296875 
Q 24.421875 6.59375 29.984375 6.59375 
Q 38.421875 6.59375 43.015625 9.90625 
Q 47.609375 13.234375 47.609375 19.390625 
Q 47.609375 24.75 44.3125 27.78125 
Q 41.015625 30.8125 33.5 32.328125 
L 27.484375 33.5 
Q 16.453125 35.6875 11.515625 40.375 
Q 6.59375 45.0625 6.59375 53.421875 
Q 6.59375 63.09375 13.40625 68.65625 
Q 20.21875 74.21875 32.171875 74.21875 
Q 37.3125 74.21875 42.625 73.28125 
Q 47.953125 72.359375 53.515625 70.515625 
z
" id="DejaVuSans-83"/>
     </defs>
     <g transform="translate(143.258381 415.389875)scale(0.1 -0.1)">
      <use xlink:href="#DejaVuSans-105"/>
      <use x="27.783203" xlink:href="#DejaVuSans-102"/>
      <use x="62.988281" xlink:href="#DejaVuSans-32"/>
      <use x="94.775391" xlink:href="#DejaVuSans-84"/>
      <use x="155.640625" xlink:href="#DejaVuSans-114"/>
      <use x="196.722656" xlink:href="#DejaVuSans-101"/>
      <use x="258.246094" xlink:href="#DejaVuSans-97"/>
      <use x="319.525391" xlink:href="#DejaVuSans-116"/>
      <use x="358.734375" xlink:href="#DejaVuSans-109"/>
      <use x="456.146484" xlink:href="#DejaVuSans-101"/>
      <use x="517.669922" xlink:href="#DejaVuSans-110"/>
      <use x="581.048828" xlink:href="#DejaVuSans-116"/>
      <use x="620.257812" xlink:href="#DejaVuSans-32"/>
      <use x="652.044922" xlink:href="#DejaVuSans-105"/>
      <use x="679.828125" xlink:href="#DejaVuSans-115"/>
      <use x="731.927734" xlink:href="#DejaVuSans-32"/>
      <use x="763.714844" xlink:href="#DejaVuSans-83"/>
      <use x="827.191406" xlink:href="#DejaVuSans-111"/>
      <use x="888.373047" xlink:href="#DejaVuSans-117"/>
      <use x="951.751953" xlink:href="#DejaVuSans-103"/>
      <use x="1015.228516" xlink:href="#DejaVuSans-104"/>
      <use x="1078.607422" xlink:href="#DejaVuSans-116"/>
     </g>
    </g>
   </g>
   <g id="matplotlib.axis_2">
    <g id="ytick_1">
     <g id="line2d_3">
      <defs>
       <path d="M 0 0 
L -3.5 0 
" id="m298f5011c1" style="stroke:#000000;stroke-width:0.8;"/>
      </defs>
      <g>
       <use style="stroke:#000000;stroke-width:0.8;" x="46.965625" xlink:href="#m298f5011c1" y="375.9155"/>
      </g>
     </g>
     <g id="text_4">
      <!-- 0 -->
      <defs>
       <path d="M 31.78125 66.40625 
Q 24.171875 66.40625 20.328125 58.90625 
Q 16.5 51.421875 16.5 36.375 
Q 16.5 21.390625 20.328125 13.890625 
Q 24.171875 6.390625 31.78125 6.390625 
Q 39.453125 6.390625 43.28125 13.890625 
Q 47.125 21.390625 47.125 36.375 
Q 47.125 51.421875 43.28125 58.90625 
Q 39.453125 66.40625 31.78125 66.40625 
z
M 31.78125 74.21875 
Q 44.046875 74.21875 50.515625 64.515625 
Q 56.984375 54.828125 56.984375 36.375 
Q 56.984375 17.96875 50.515625 8.265625 
Q 44.046875 -1.421875 31.78125 -1.421875 
Q 19.53125 -1.421875 13.0625 8.265625 
Q 6.59375 17.96875 6.59375 36.375 
Q 6.59375 54.828125 13.0625 64.515625 
Q 19.53125 74.21875 31.78125 74.21875 
z
" id="DejaVuSans-48"/>
      </defs>
      <g transform="translate(33.603125 379.714719)scale(0.1 -0.1)">
       <use xlink:href="#DejaVuSans-48"/>
      </g>
     </g>
    </g>
    <g id="ytick_2">
     <g id="line2d_4">
      <g>
       <use style="stroke:#000000;stroke-width:0.8;" x="46.965625" xlink:href="#m298f5011c1" y="310.6835"/>
      </g>
     </g>
     <g id="text_5">
      <!-- 20 -->
      <defs>
       <path d="M 19.1875 8.296875 
L 53.609375 8.296875 
L 53.609375 0 
L 7.328125 0 
L 7.328125 8.296875 
Q 12.9375 14.109375 22.625 23.890625 
Q 32.328125 33.6875 34.8125 36.53125 
Q 39.546875 41.84375 41.421875 45.53125 
Q 43.3125 49.21875 43.3125 52.78125 
Q 43.3125 58.59375 39.234375 62.25 
Q 35.15625 65.921875 28.609375 65.921875 
Q 23.96875 65.921875 18.8125 64.3125 
Q 13.671875 62.703125 7.8125 59.421875 
L 7.8125 69.390625 
Q 13.765625 71.78125 18.9375 73 
Q 24.125 74.21875 28.421875 74.21875 
Q 39.75 74.21875 46.484375 68.546875 
Q 53.21875 62.890625 53.21875 53.421875 
Q 53.21875 48.921875 51.53125 44.890625 
Q 49.859375 40.875 45.40625 35.40625 
Q 44.1875 33.984375 37.640625 27.21875 
Q 31.109375 20.453125 19.1875 8.296875 
z
" id="DejaVuSans-50"/>
      </defs>
      <g transform="translate(27.240625 314.482719)scale(0.1 -0.1)">
       <use xlink:href="#DejaVuSans-50"/>
       <use x="63.623047" xlink:href="#DejaVuSans-48"/>
      </g>
     </g>
    </g>
    <g id="ytick_3">
     <g id="line2d_5">
      <g>
       <use style="stroke:#000000;stroke-width:0.8;" x="46.965625" xlink:href="#m298f5011c1" y="245.4515"/>
      </g>
     </g>
     <g id="text_6">
      <!-- 40 -->
      <defs>
       <path d="M 37.796875 64.3125 
L 12.890625 25.390625 
L 37.796875 25.390625 
z
M 35.203125 72.90625 
L 47.609375 72.90625 
L 47.609375 25.390625 
L 58.015625 25.390625 
L 58.015625 17.1875 
L 47.609375 17.1875 
L 47.609375 0 
L 37.796875 0 
L 37.796875 17.1875 
L 4.890625 17.1875 
L 4.890625 26.703125 
z
" id="DejaVuSans-52"/>
      </defs>
      <g transform="translate(27.240625 249.250719)scale(0.1 -0.1)">
       <use xlink:href="#DejaVuSans-52"/>
       <use x="63.623047" xlink:href="#DejaVuSans-48"/>
      </g>
     </g>
    </g>
    <g id="ytick_4">
     <g id="line2d_6">
      <g>
       <use style="stroke:#000000;stroke-width:0.8;" x="46.965625" xlink:href="#m298f5011c1" y="180.2195"/>
      </g>
     </g>
     <g id="text_7">
      <!-- 60 -->
      <defs>
       <path d="M 33.015625 40.375 
Q 26.375 40.375 22.484375 35.828125 
Q 18.609375 31.296875 18.609375 23.390625 
Q 18.609375 15.53125 22.484375 10.953125 
Q 26.375 6.390625 33.015625 6.390625 
Q 39.65625 6.390625 43.53125 10.953125 
Q 47.40625 15.53125 47.40625 23.390625 
Q 47.40625 31.296875 43.53125 35.828125 
Q 39.65625 40.375 33.015625 40.375 
z
M 52.59375 71.296875 
L 52.59375 62.3125 
Q 48.875 64.0625 45.09375 64.984375 
Q 41.3125 65.921875 37.59375 65.921875 
Q 27.828125 65.921875 22.671875 59.328125 
Q 17.53125 52.734375 16.796875 39.40625 
Q 19.671875 43.65625 24.015625 45.921875 
Q 28.375 48.1875 33.59375 48.1875 
Q 44.578125 48.1875 50.953125 41.515625 
Q 57.328125 34.859375 57.328125 23.390625 
Q 57.328125 12.15625 50.6875 5.359375 
Q 44.046875 -1.421875 33.015625 -1.421875 
Q 20.359375 -1.421875 13.671875 8.265625 
Q 6.984375 17.96875 6.984375 36.375 
Q 6.984375 53.65625 15.1875 63.9375 
Q 23.390625 74.21875 37.203125 74.21875 
Q 40.921875 74.21875 44.703125 73.484375 
Q 48.484375 72.75 52.59375 71.296875 
z
" id="DejaVuSans-54"/>
      </defs>
      <g transform="translate(27.240625 184.018719)scale(0.1 -0.1)">
       <use xlink:href="#DejaVuSans-54"/>
       <use x="63.623047" xlink:href="#DejaVuSans-48"/>
      </g>
     </g>
    </g>
    <g id="ytick_5">
     <g id="line2d_7">
      <g>
       <use style="stroke:#000000;stroke-width:0.8;" x="46.965625" xlink:href="#m298f5011c1" y="114.9875"/>
      </g>
     </g>
     <g id="text_8">
      <!-- 80 -->
      <defs>
       <path d="M 31.78125 34.625 
Q 24.75 34.625 20.71875 30.859375 
Q 16.703125 27.09375 16.703125 20.515625 
Q 16.703125 13.921875 20.71875 10.15625 
Q 24.75 6.390625 31.78125 6.390625 
Q 38.8125 6.390625 42.859375 10.171875 
Q 46.921875 13.96875 46.921875 20.515625 
Q 46.921875 27.09375 42.890625 30.859375 
Q 38.875 34.625 31.78125 34.625 
z
M 21.921875 38.8125 
Q 15.578125 40.375 12.03125 44.71875 
Q 8.5 49.078125 8.5 55.328125 
Q 8.5 64.0625 14.71875 69.140625 
Q 20.953125 74.21875 31.78125 74.21875 
Q 42.671875 74.21875 48.875 69.140625 
Q 55.078125 64.0625 55.078125 55.328125 
Q 55.078125 49.078125 51.53125 44.71875 
Q 48 40.375 41.703125 38.8125 
Q 48.828125 37.15625 52.796875 32.3125 
Q 56.78125 27.484375 56.78125 20.515625 
Q 56.78125 9.90625 50.3125 4.234375 
Q 43.84375 -1.421875 31.78125 -1.421875 
Q 19.734375 -1.421875 13.25 4.234375 
Q 6.78125 9.90625 6.78125 20.515625 
Q 6.78125 27.484375 10.78125 32.3125 
Q 14.796875 37.15625 21.921875 38.8125 
z
M 18.3125 54.390625 
Q 18.3125 48.734375 21.84375 45.5625 
Q 25.390625 42.390625 31.78125 42.390625 
Q 38.140625 42.390625 41.71875 45.5625 
Q 45.3125 48.734375 45.3125 54.390625 
Q 45.3125 60.0625 41.71875 63.234375 
Q 38.140625 66.40625 31.78125 66.40625 
Q 25.390625 66.40625 21.84375 63.234375 
Q 18.3125 60.0625 18.3125 54.390625 
z
" id="DejaVuSans-56"/>
      </defs>
      <g transform="translate(27.240625 118.786719)scale(0.1 -0.1)">
       <use xlink:href="#DejaVuSans-56"/>
       <use x="63.623047" xlink:href="#DejaVuSans-48"/>
      </g>
     </g>
    </g>
    <g id="ytick_6">
     <g id="line2d_8">
      <g>
       <use style="stroke:#000000;stroke-width:0.8;" x="46.965625" xlink:href="#m298f5011c1" y="49.7555"/>
      </g>
     </g>
     <g id="text_9">
      <!-- 100 -->
      <defs>
       <path d="M 12.40625 8.296875 
L 28.515625 8.296875 
L 28.515625 63.921875 
L 10.984375 60.40625 
L 10.984375 69.390625 
L 28.421875 72.90625 
L 38.28125 72.90625 
L 38.28125 8.296875 
L 54.390625 8.296875 
L 54.390625 0 
L 12.40625 0 
z
" id="DejaVuSans-49"/>
      </defs>
      <g transform="translate(20.878125 53.554719)scale(0.1 -0.1)">
       <use xlink:href="#DejaVuSans-49"/>
       <use x="63.623047" xlink:href="#DejaVuSans-48"/>
       <use x="127.246094" xlink:href="#DejaVuSans-48"/>
      </g>
     </g>
    </g>
    <g id="text_10">
     <!-- % of Workers Sought Treatment -->
     <defs>
      <path d="M 72.703125 32.078125 
Q 68.453125 32.078125 66.03125 28.46875 
Q 63.625 24.859375 63.625 18.40625 
Q 63.625 12.0625 66.03125 8.421875 
Q 68.453125 4.78125 72.703125 4.78125 
Q 76.859375 4.78125 79.265625 8.421875 
Q 81.6875 12.0625 81.6875 18.40625 
Q 81.6875 24.8125 79.265625 28.4375 
Q 76.859375 32.078125 72.703125 32.078125 
z
M 72.703125 38.28125 
Q 80.421875 38.28125 84.953125 32.90625 
Q 89.5 27.546875 89.5 18.40625 
Q 89.5 9.28125 84.9375 3.921875 
Q 80.375 -1.421875 72.703125 -1.421875 
Q 64.890625 -1.421875 60.34375 3.921875 
Q 55.8125 9.28125 55.8125 18.40625 
Q 55.8125 27.59375 60.375 32.9375 
Q 64.9375 38.28125 72.703125 38.28125 
z
M 22.3125 68.015625 
Q 18.109375 68.015625 15.6875 64.375 
Q 13.28125 60.75 13.28125 54.390625 
Q 13.28125 47.953125 15.671875 44.328125 
Q 18.0625 40.71875 22.3125 40.71875 
Q 26.5625 40.71875 28.96875 44.328125 
Q 31.390625 47.953125 31.390625 54.390625 
Q 31.390625 60.6875 28.953125 64.34375 
Q 26.515625 68.015625 22.3125 68.015625 
z
M 66.40625 74.21875 
L 74.21875 74.21875 
L 28.609375 -1.421875 
L 20.796875 -1.421875 
z
M 22.3125 74.21875 
Q 30.03125 74.21875 34.609375 68.875 
Q 39.203125 63.53125 39.203125 54.390625 
Q 39.203125 45.171875 34.640625 39.84375 
Q 30.078125 34.515625 22.3125 34.515625 
Q 14.546875 34.515625 10.03125 39.859375 
Q 5.515625 45.21875 5.515625 54.390625 
Q 5.515625 63.484375 10.046875 68.84375 
Q 14.59375 74.21875 22.3125 74.21875 
z
" id="DejaVuSans-37"/>
      <path d="M 3.328125 72.90625 
L 13.28125 72.90625 
L 28.609375 11.28125 
L 43.890625 72.90625 
L 54.984375 72.90625 
L 70.3125 11.28125 
L 85.59375 72.90625 
L 95.609375 72.90625 
L 77.296875 0 
L 64.890625 0 
L 49.515625 63.28125 
L 33.984375 0 
L 21.578125 0 
z
" id="DejaVuSans-87"/>
     </defs>
     <g transform="translate(14.798438 293.425344)rotate(-90)scale(0.1 -0.1)">
      <use xlink:href="#DejaVuSans-37"/>
      <use x="95.019531" xlink:href="#DejaVuSans-32"/>
      <use x="126.806641" xlink:href="#DejaVuSans-111"/>
      <use x="187.988281" xlink:href="#DejaVuSans-102"/>
      <use x="223.193359" xlink:href="#DejaVuSans-32"/>
      <use x="254.980469" xlink:href="#DejaVuSans-87"/>
      <use x="353.779297" xlink:href="#DejaVuSans-111"/>
      <use x="414.960938" xlink:href="#DejaVuSans-114"/>
      <use x="456.074219" xlink:href="#DejaVuSans-107"/>
      <use x="513.9375" xlink:href="#DejaVuSans-101"/>
      <use x="575.460938" xlink:href="#DejaVuSans-114"/>
      <use x="616.574219" xlink:href="#DejaVuSans-115"/>
      <use x="668.673828" xlink:href="#DejaVuSans-32"/>
      <use x="700.460938" xlink:href="#DejaVuSans-83"/>
      <use x="763.9375" xlink:href="#DejaVuSans-111"/>
      <use x="825.119141" xlink:href="#DejaVuSans-117"/>
      <use x="888.498047" xlink:href="#DejaVuSans-103"/>
      <use x="951.974609" xlink:href="#DejaVuSans-104"/>
      <use x="1015.353516" xlink:href="#DejaVuSans-116"/>
      <use x="1054.5625" xlink:href="#DejaVuSans-32"/>
      <use x="1086.349609" xlink:href="#DejaVuSans-84"/>
      <use x="1147.214844" xlink:href="#DejaVuSans-114"/>
      <use x="1188.296875" xlink:href="#DejaVuSans-101"/>
      <use x="1249.820312" xlink:href="#DejaVuSans-97"/>
      <use x="1311.099609" xlink:href="#DejaVuSans-116"/>
      <use x="1350.308594" xlink:href="#DejaVuSans-109"/>
      <use x="1447.720703" xlink:href="#DejaVuSans-101"/>
      <use x="1509.244141" xlink:href="#DejaVuSans-110"/>
      <use x="1572.623047" xlink:href="#DejaVuSans-116"/>
     </g>
    </g>
   </g>
   <g id="patch_5">
    <path d="M 46.965625 375.9155 
L 46.965625 49.7555 
" style="fill:none;stroke:#000000;stroke-linecap:square;stroke-linejoin:miter;stroke-width:0.8;"/>
   </g>
   <g id="patch_6">
    <path d="M 351.329261 375.9155 
L 351.329261 49.7555 
" style="fill:none;stroke:#000000;stroke-linecap:square;stroke-linejoin:miter;stroke-width:0.8;"/>
   </g>
   <g id="patch_7">
    <path d="M 46.965625 375.9155 
L 351.329261 375.9155 
" style="fill:none;stroke:#000000;stroke-linecap:square;stroke-linejoin:miter;stroke-width:0.8;"/>
   </g>
   <g id="patch_8">
    <path d="M 46.965625 49.7555 
L 351.329261 49.7555 
" style="fill:none;stroke:#000000;stroke-linecap:square;stroke-linejoin:miter;stroke-width:0.8;"/>
   </g>
   <g id="text_11">
    <!-- Percentage of Workers who sought treatment by a  -->
    <defs>
     <path d="M 19.671875 64.796875 
L 19.671875 37.40625 
L 32.078125 37.40625 
Q 38.96875 37.40625 42.71875 40.96875 
Q 46.484375 44.53125 46.484375 51.125 
Q 46.484375 57.671875 42.71875 61.234375 
Q 38.96875 64.796875 32.078125 64.796875 
z
M 9.8125 72.90625 
L 32.078125 72.90625 
Q 44.34375 72.90625 50.609375 67.359375 
Q 56.890625 61.8125 56.890625 51.125 
Q 56.890625 40.328125 50.609375 34.8125 
Q 44.34375 29.296875 32.078125 29.296875 
L 19.671875 29.296875 
L 19.671875 0 
L 9.8125 0 
z
" id="DejaVuSans-80"/>
    </defs>
    <g transform="translate(369.59108 141.515875)scale(0.1 -0.1)">
     <use xlink:href="#DejaVuSans-80"/>
     <use x="60.255859" xlink:href="#DejaVuSans-101"/>
     <use x="121.779297" xlink:href="#DejaVuSans-114"/>
     <use x="162.861328" xlink:href="#DejaVuSans-99"/>
     <use x="217.841797" xlink:href="#DejaVuSans-101"/>
     <use x="279.365234" xlink:href="#DejaVuSans-110"/>
     <use x="342.744141" xlink:href="#DejaVuSans-116"/>
     <use x="381.953125" xlink:href="#DejaVuSans-97"/>
     <use x="443.232422" xlink:href="#DejaVuSans-103"/>
     <use x="506.708984" xlink:href="#DejaVuSans-101"/>
     <use x="568.232422" xlink:href="#DejaVuSans-32"/>
     <use x="600.019531" xlink:href="#DejaVuSans-111"/>
     <use x="661.201172" xlink:href="#DejaVuSans-102"/>
     <use x="696.40625" xlink:href="#DejaVuSans-32"/>
     <use x="728.193359" xlink:href="#DejaVuSans-87"/>
     <use x="826.992188" xlink:href="#DejaVuSans-111"/>
     <use x="888.173828" xlink:href="#DejaVuSans-114"/>
     <use x="929.287109" xlink:href="#DejaVuSans-107"/>
     <use x="987.150391" xlink:href="#DejaVuSans-101"/>
     <use x="1048.673828" xlink:href="#DejaVuSans-114"/>
     <use x="1089.787109" xlink:href="#DejaVuSans-115"/>
     <use x="1141.886719" xlink:href="#DejaVuSans-32"/>
     <use x="1173.673828" xlink:href="#DejaVuSans-119"/>
     <use x="1255.460938" xlink:href="#DejaVuSans-104"/>
     <use x="1318.839844" xlink:href="#DejaVuSans-111"/>
     <use x="1380.021484" xlink:href="#DejaVuSans-32"/>
     <use x="1411.808594" xlink:href="#DejaVuSans-115"/>
     <use x="1463.908203" xlink:href="#DejaVuSans-111"/>
     <use x="1525.089844" xlink:href="#DejaVuSans-117"/>
     <use x="1588.46875" xlink:href="#DejaVuSans-103"/>
     <use x="1651.945312" xlink:href="#DejaVuSans-104"/>
     <use x="1715.324219" xlink:href="#DejaVuSans-116"/>
     <use x="1754.533203" xlink:href="#DejaVuSans-32"/>
     <use x="1786.320312" xlink:href="#DejaVuSans-116"/>
     <use x="1825.529297" xlink:href="#DejaVuSans-114"/>
     <use x="1866.611328" xlink:href="#DejaVuSans-101"/>
     <use x="1928.134766" xlink:href="#DejaVuSans-97"/>
     <use x="1989.414062" xlink:href="#DejaVuSans-116"/>
     <use x="2028.623047" xlink:href="#DejaVuSans-109"/>
     <use x="2126.035156" xlink:href="#DejaVuSans-101"/>
     <use x="2187.558594" xlink:href="#DejaVuSans-110"/>
     <use x="2250.9375" xlink:href="#DejaVuSans-116"/>
     <use x="2290.146484" xlink:href="#DejaVuSans-32"/>
     <use x="2321.933594" xlink:href="#DejaVuSans-98"/>
     <use x="2385.410156" xlink:href="#DejaVuSans-121"/>
     <use x="2444.589844" xlink:href="#DejaVuSans-32"/>
     <use x="2476.376953" xlink:href="#DejaVuSans-97"/>
     <use x="2537.65625" xlink:href="#DejaVuSans-32"/>
    </g>
    <!-- professional relative to wether they felt  -->
    <defs>
     <path d="M 18.109375 8.203125 
L 18.109375 -20.796875 
L 9.078125 -20.796875 
L 9.078125 54.6875 
L 18.109375 54.6875 
L 18.109375 46.390625 
Q 20.953125 51.265625 25.265625 53.625 
Q 29.59375 56 35.59375 56 
Q 45.5625 56 51.78125 48.09375 
Q 58.015625 40.1875 58.015625 27.296875 
Q 58.015625 14.40625 51.78125 6.484375 
Q 45.5625 -1.421875 35.59375 -1.421875 
Q 29.59375 -1.421875 25.265625 0.953125 
Q 20.953125 3.328125 18.109375 8.203125 
z
M 48.6875 27.296875 
Q 48.6875 37.203125 44.609375 42.84375 
Q 40.53125 48.484375 33.40625 48.484375 
Q 26.265625 48.484375 22.1875 42.84375 
Q 18.109375 37.203125 18.109375 27.296875 
Q 18.109375 17.390625 22.1875 11.75 
Q 26.265625 6.109375 33.40625 6.109375 
Q 40.53125 6.109375 44.609375 11.75 
Q 48.6875 17.390625 48.6875 27.296875 
z
" id="DejaVuSans-112"/>
    </defs>
    <g transform="translate(369.59108 152.713687)scale(0.1 -0.1)">
     <use xlink:href="#DejaVuSans-112"/>
     <use x="63.476562" xlink:href="#DejaVuSans-114"/>
     <use x="104.558594" xlink:href="#DejaVuSans-111"/>
     <use x="165.740234" xlink:href="#DejaVuSans-102"/>
     <use x="200.945312" xlink:href="#DejaVuSans-101"/>
     <use x="262.46875" xlink:href="#DejaVuSans-115"/>
     <use x="314.568359" xlink:href="#DejaVuSans-115"/>
     <use x="366.667969" xlink:href="#DejaVuSans-105"/>
     <use x="394.451172" xlink:href="#DejaVuSans-111"/>
     <use x="455.632812" xlink:href="#DejaVuSans-110"/>
     <use x="519.011719" xlink:href="#DejaVuSans-97"/>
     <use x="580.291016" xlink:href="#DejaVuSans-108"/>
     <use x="608.074219" xlink:href="#DejaVuSans-32"/>
     <use x="639.861328" xlink:href="#DejaVuSans-114"/>
     <use x="680.943359" xlink:href="#DejaVuSans-101"/>
     <use x="742.466797" xlink:href="#DejaVuSans-108"/>
     <use x="770.25" xlink:href="#DejaVuSans-97"/>
     <use x="831.529297" xlink:href="#DejaVuSans-116"/>
     <use x="870.738281" xlink:href="#DejaVuSans-105"/>
     <use x="898.521484" xlink:href="#DejaVuSans-118"/>
     <use x="957.701172" xlink:href="#DejaVuSans-101"/>
     <use x="1019.224609" xlink:href="#DejaVuSans-32"/>
     <use x="1051.011719" xlink:href="#DejaVuSans-116"/>
     <use x="1090.220703" xlink:href="#DejaVuSans-111"/>
     <use x="1151.402344" xlink:href="#DejaVuSans-32"/>
     <use x="1183.189453" xlink:href="#DejaVuSans-119"/>
     <use x="1264.976562" xlink:href="#DejaVuSans-101"/>
     <use x="1326.5" xlink:href="#DejaVuSans-116"/>
     <use x="1365.708984" xlink:href="#DejaVuSans-104"/>
     <use x="1429.087891" xlink:href="#DejaVuSans-101"/>
     <use x="1490.611328" xlink:href="#DejaVuSans-114"/>
     <use x="1531.724609" xlink:href="#DejaVuSans-32"/>
     <use x="1563.511719" xlink:href="#DejaVuSans-116"/>
     <use x="1602.720703" xlink:href="#DejaVuSans-104"/>
     <use x="1666.099609" xlink:href="#DejaVuSans-101"/>
     <use x="1727.623047" xlink:href="#DejaVuSans-121"/>
     <use x="1786.802734" xlink:href="#DejaVuSans-32"/>
     <use x="1818.589844" xlink:href="#DejaVuSans-102"/>
     <use x="1853.794922" xlink:href="#DejaVuSans-101"/>
     <use x="1915.318359" xlink:href="#DejaVuSans-108"/>
     <use x="1943.101562" xlink:href="#DejaVuSans-116"/>
     <use x="1982.310547" xlink:href="#DejaVuSans-32"/>
    </g>
    <!-- they could count on anonymity -->
    <defs>
     <path d="M 45.40625 46.390625 
L 45.40625 75.984375 
L 54.390625 75.984375 
L 54.390625 0 
L 45.40625 0 
L 45.40625 8.203125 
Q 42.578125 3.328125 38.25 0.953125 
Q 33.9375 -1.421875 27.875 -1.421875 
Q 17.96875 -1.421875 11.734375 6.484375 
Q 5.515625 14.40625 5.515625 27.296875 
Q 5.515625 40.1875 11.734375 48.09375 
Q 17.96875 56 27.875 56 
Q 33.9375 56 38.25 53.625 
Q 42.578125 51.265625 45.40625 46.390625 
z
M 14.796875 27.296875 
Q 14.796875 17.390625 18.875 11.75 
Q 22.953125 6.109375 30.078125 6.109375 
Q 37.203125 6.109375 41.296875 11.75 
Q 45.40625 17.390625 45.40625 27.296875 
Q 45.40625 37.203125 41.296875 42.84375 
Q 37.203125 48.484375 30.078125 48.484375 
Q 22.953125 48.484375 18.875 42.84375 
Q 14.796875 37.203125 14.796875 27.296875 
z
" id="DejaVuSans-100"/>
    </defs>
    <g transform="translate(369.59108 163.9115)scale(0.1 -0.1)">
     <use xlink:href="#DejaVuSans-116"/>
     <use x="39.208984" xlink:href="#DejaVuSans-104"/>
     <use x="102.587891" xlink:href="#DejaVuSans-101"/>
     <use x="164.111328" xlink:href="#DejaVuSans-121"/>
     <use x="223.291016" xlink:href="#DejaVuSans-32"/>
     <use x="255.078125" xlink:href="#DejaVuSans-99"/>
     <use x="310.058594" xlink:href="#DejaVuSans-111"/>
     <use x="371.240234" xlink:href="#DejaVuSans-117"/>
     <use x="434.619141" xlink:href="#DejaVuSans-108"/>
     <use x="462.402344" xlink:href="#DejaVuSans-100"/>
     <use x="525.878906" xlink:href="#DejaVuSans-32"/>
     <use x="557.666016" xlink:href="#DejaVuSans-99"/>
     <use x="612.646484" xlink:href="#DejaVuSans-111"/>
     <use x="673.828125" xlink:href="#DejaVuSans-117"/>
     <use x="737.207031" xlink:href="#DejaVuSans-110"/>
     <use x="800.585938" xlink:href="#DejaVuSans-116"/>
     <use x="839.794922" xlink:href="#DejaVuSans-32"/>
     <use x="871.582031" xlink:href="#DejaVuSans-111"/>
     <use x="932.763672" xlink:href="#DejaVuSans-110"/>
     <use x="996.142578" xlink:href="#DejaVuSans-32"/>
     <use x="1027.929688" xlink:href="#DejaVuSans-97"/>
     <use x="1089.208984" xlink:href="#DejaVuSans-110"/>
     <use x="1152.587891" xlink:href="#DejaVuSans-111"/>
     <use x="1213.769531" xlink:href="#DejaVuSans-110"/>
     <use x="1277.148438" xlink:href="#DejaVuSans-121"/>
     <use x="1336.328125" xlink:href="#DejaVuSans-109"/>
     <use x="1433.740234" xlink:href="#DejaVuSans-105"/>
     <use x="1461.523438" xlink:href="#DejaVuSans-116"/>
     <use x="1500.732422" xlink:href="#DejaVuSans-121"/>
    </g>
   </g>
   <g id="text_12">
    <!-- 93.3% -->
    <defs>
     <path d="M 10.984375 1.515625 
L 10.984375 10.5 
Q 14.703125 8.734375 18.5 7.8125 
Q 22.3125 6.890625 25.984375 6.890625 
Q 35.75 6.890625 40.890625 13.453125 
Q 46.046875 20.015625 46.78125 33.40625 
Q 43.953125 29.203125 39.59375 26.953125 
Q 35.25 24.703125 29.984375 24.703125 
Q 19.046875 24.703125 12.671875 31.3125 
Q 6.296875 37.9375 6.296875 49.421875 
Q 6.296875 60.640625 12.9375 67.421875 
Q 19.578125 74.21875 30.609375 74.21875 
Q 43.265625 74.21875 49.921875 64.515625 
Q 56.59375 54.828125 56.59375 36.375 
Q 56.59375 19.140625 48.40625 8.859375 
Q 40.234375 -1.421875 26.421875 -1.421875 
Q 22.703125 -1.421875 18.890625 -0.6875 
Q 15.09375 0.046875 10.984375 1.515625 
z
M 30.609375 32.421875 
Q 37.25 32.421875 41.125 36.953125 
Q 45.015625 41.5 45.015625 49.421875 
Q 45.015625 57.28125 41.125 61.84375 
Q 37.25 66.40625 30.609375 66.40625 
Q 23.96875 66.40625 20.09375 61.84375 
Q 16.21875 57.28125 16.21875 49.421875 
Q 16.21875 41.5 20.09375 36.953125 
Q 23.96875 32.421875 30.609375 32.421875 
z
" id="DejaVuSans-57"/>
     <path d="M 40.578125 39.3125 
Q 47.65625 37.796875 51.625 33 
Q 55.609375 28.21875 55.609375 21.1875 
Q 55.609375 10.40625 48.1875 4.484375 
Q 40.765625 -1.421875 27.09375 -1.421875 
Q 22.515625 -1.421875 17.65625 -0.515625 
Q 12.796875 0.390625 7.625 2.203125 
L 7.625 11.71875 
Q 11.71875 9.328125 16.59375 8.109375 
Q 21.484375 6.890625 26.8125 6.890625 
Q 36.078125 6.890625 40.9375 10.546875 
Q 45.796875 14.203125 45.796875 21.1875 
Q 45.796875 27.640625 41.28125 31.265625 
Q 36.765625 34.90625 28.71875 34.90625 
L 20.21875 34.90625 
L 20.21875 43.015625 
L 29.109375 43.015625 
Q 36.375 43.015625 40.234375 45.921875 
Q 44.09375 48.828125 44.09375 54.296875 
Q 44.09375 59.90625 40.109375 62.90625 
Q 36.140625 65.921875 28.71875 65.921875 
Q 24.65625 65.921875 20.015625 65.03125 
Q 15.375 64.15625 9.8125 62.3125 
L 9.8125 71.09375 
Q 15.4375 72.65625 20.34375 73.4375 
Q 25.25 74.21875 29.59375 74.21875 
Q 40.828125 74.21875 47.359375 69.109375 
Q 53.90625 64.015625 53.90625 55.328125 
Q 53.90625 49.265625 50.4375 45.09375 
Q 46.96875 40.921875 40.578125 39.3125 
z
" id="DejaVuSans-51"/>
     <path d="M 10.6875 12.40625 
L 21 12.40625 
L 21 0 
L 10.6875 0 
z
" id="DejaVuSans-46"/>
    </defs>
    <g style="fill:#ffffff;" transform="translate(122.447807 91.17782)scale(0.12 -0.12)">
     <use xlink:href="#DejaVuSans-57"/>
     <use x="63.623047" xlink:href="#DejaVuSans-51"/>
     <use x="127.246094" xlink:href="#DejaVuSans-46"/>
     <use x="159.033203" xlink:href="#DejaVuSans-51"/>
     <use x="222.65625" xlink:href="#DejaVuSans-37"/>
    </g>
   </g>
   <g id="text_13">
    <!-- 94.1% -->
    <g style="fill:#ffffff;" transform="translate(244.193261 88.56854)scale(0.12 -0.12)">
     <use xlink:href="#DejaVuSans-57"/>
     <use x="63.623047" xlink:href="#DejaVuSans-52"/>
     <use x="127.246094" xlink:href="#DejaVuSans-46"/>
     <use x="159.033203" xlink:href="#DejaVuSans-49"/>
     <use x="222.65625" xlink:href="#DejaVuSans-37"/>
    </g>
   </g>
   <g id="text_14">
    <!-- 7. Does providing anonymity to employees  -->
    <defs>
     <path d="M 8.203125 72.90625 
L 55.078125 72.90625 
L 55.078125 68.703125 
L 28.609375 0 
L 18.3125 0 
L 43.21875 64.59375 
L 8.203125 64.59375 
z
" id="DejaVuSans-55"/>
     <path d="M 19.671875 64.796875 
L 19.671875 8.109375 
L 31.59375 8.109375 
Q 46.6875 8.109375 53.6875 14.9375 
Q 60.6875 21.78125 60.6875 36.53125 
Q 60.6875 51.171875 53.6875 57.984375 
Q 46.6875 64.796875 31.59375 64.796875 
z
M 9.8125 72.90625 
L 30.078125 72.90625 
Q 51.265625 72.90625 61.171875 64.09375 
Q 71.09375 55.28125 71.09375 36.53125 
Q 71.09375 17.671875 61.125 8.828125 
Q 51.171875 0 30.078125 0 
L 9.8125 0 
z
" id="DejaVuSans-68"/>
    </defs>
    <g transform="translate(67.935881 16.318125)scale(0.12 -0.12)">
     <use xlink:href="#DejaVuSans-55"/>
     <use x="63.623047" xlink:href="#DejaVuSans-46"/>
     <use x="95.410156" xlink:href="#DejaVuSans-32"/>
     <use x="127.197266" xlink:href="#DejaVuSans-68"/>
     <use x="204.199219" xlink:href="#DejaVuSans-111"/>
     <use x="265.380859" xlink:href="#DejaVuSans-101"/>
     <use x="326.904297" xlink:href="#DejaVuSans-115"/>
     <use x="379.003906" xlink:href="#DejaVuSans-32"/>
     <use x="410.791016" xlink:href="#DejaVuSans-112"/>
     <use x="474.267578" xlink:href="#DejaVuSans-114"/>
     <use x="515.349609" xlink:href="#DejaVuSans-111"/>
     <use x="576.53125" xlink:href="#DejaVuSans-118"/>
     <use x="635.710938" xlink:href="#DejaVuSans-105"/>
     <use x="663.494141" xlink:href="#DejaVuSans-100"/>
     <use x="726.970703" xlink:href="#DejaVuSans-105"/>
     <use x="754.753906" xlink:href="#DejaVuSans-110"/>
     <use x="818.132812" xlink:href="#DejaVuSans-103"/>
     <use x="881.609375" xlink:href="#DejaVuSans-32"/>
     <use x="913.396484" xlink:href="#DejaVuSans-97"/>
     <use x="974.675781" xlink:href="#DejaVuSans-110"/>
     <use x="1038.054688" xlink:href="#DejaVuSans-111"/>
     <use x="1099.236328" xlink:href="#DejaVuSans-110"/>
     <use x="1162.615234" xlink:href="#DejaVuSans-121"/>
     <use x="1221.794922" xlink:href="#DejaVuSans-109"/>
     <use x="1319.207031" xlink:href="#DejaVuSans-105"/>
     <use x="1346.990234" xlink:href="#DejaVuSans-116"/>
     <use x="1386.199219" xlink:href="#DejaVuSans-121"/>
     <use x="1445.378906" xlink:href="#DejaVuSans-32"/>
     <use x="1477.166016" xlink:href="#DejaVuSans-116"/>
     <use x="1516.375" xlink:href="#DejaVuSans-111"/>
     <use x="1577.556641" xlink:href="#DejaVuSans-32"/>
     <use x="1609.34375" xlink:href="#DejaVuSans-101"/>
     <use x="1670.867188" xlink:href="#DejaVuSans-109"/>
     <use x="1768.279297" xlink:href="#DejaVuSans-112"/>
     <use x="1831.755859" xlink:href="#DejaVuSans-108"/>
     <use x="1859.539062" xlink:href="#DejaVuSans-111"/>
     <use x="1920.720703" xlink:href="#DejaVuSans-121"/>
     <use x="1979.900391" xlink:href="#DejaVuSans-101"/>
     <use x="2041.423828" xlink:href="#DejaVuSans-101"/>
     <use x="2102.947266" xlink:href="#DejaVuSans-115"/>
     <use x="2155.046875" xlink:href="#DejaVuSans-32"/>
    </g>
    <!-- increase the likelihood that they will seek out treatment? -->
    <defs>
     <path d="M 19.09375 12.40625 
L 29 12.40625 
L 29 0 
L 19.09375 0 
z
M 28.71875 19.578125 
L 19.390625 19.578125 
L 19.390625 27.09375 
Q 19.390625 32.03125 20.75 35.203125 
Q 22.125 38.375 26.515625 42.578125 
L 30.90625 46.921875 
Q 33.6875 49.515625 34.9375 51.8125 
Q 36.1875 54.109375 36.1875 56.5 
Q 36.1875 60.84375 32.984375 63.53125 
Q 29.78125 66.21875 24.515625 66.21875 
Q 20.65625 66.21875 16.28125 64.5 
Q 11.921875 62.796875 7.171875 59.515625 
L 7.171875 68.703125 
Q 11.765625 71.484375 16.46875 72.84375 
Q 21.1875 74.21875 26.21875 74.21875 
Q 35.203125 74.21875 40.640625 69.484375 
Q 46.09375 64.75 46.09375 56.984375 
Q 46.09375 53.265625 44.328125 49.921875 
Q 42.578125 46.578125 38.1875 42.390625 
L 33.890625 38.1875 
Q 31.59375 35.890625 30.640625 34.59375 
Q 29.6875 33.296875 29.296875 32.078125 
Q 29 31.0625 28.859375 29.59375 
Q 28.71875 28.125 28.71875 25.59375 
z
" id="DejaVuSans-63"/>
    </defs>
    <g transform="translate(27.129318 29.7555)scale(0.12 -0.12)">
     <use xlink:href="#DejaVuSans-105"/>
     <use x="27.783203" xlink:href="#DejaVuSans-110"/>
     <use x="91.162109" xlink:href="#DejaVuSans-99"/>
     <use x="146.142578" xlink:href="#DejaVuSans-114"/>
     <use x="187.224609" xlink:href="#DejaVuSans-101"/>
     <use x="248.748047" xlink:href="#DejaVuSans-97"/>
     <use x="310.027344" xlink:href="#DejaVuSans-115"/>
     <use x="362.126953" xlink:href="#DejaVuSans-101"/>
     <use x="423.650391" xlink:href="#DejaVuSans-32"/>
     <use x="455.4375" xlink:href="#DejaVuSans-116"/>
     <use x="494.646484" xlink:href="#DejaVuSans-104"/>
     <use x="558.025391" xlink:href="#DejaVuSans-101"/>
     <use x="619.548828" xlink:href="#DejaVuSans-32"/>
     <use x="651.335938" xlink:href="#DejaVuSans-108"/>
     <use x="679.119141" xlink:href="#DejaVuSans-105"/>
     <use x="706.902344" xlink:href="#DejaVuSans-107"/>
     <use x="764.765625" xlink:href="#DejaVuSans-101"/>
     <use x="826.289062" xlink:href="#DejaVuSans-108"/>
     <use x="854.072266" xlink:href="#DejaVuSans-105"/>
     <use x="881.855469" xlink:href="#DejaVuSans-104"/>
     <use x="945.234375" xlink:href="#DejaVuSans-111"/>
     <use x="1006.416016" xlink:href="#DejaVuSans-111"/>
     <use x="1067.597656" xlink:href="#DejaVuSans-100"/>
     <use x="1131.074219" xlink:href="#DejaVuSans-32"/>
     <use x="1162.861328" xlink:href="#DejaVuSans-116"/>
     <use x="1202.070312" xlink:href="#DejaVuSans-104"/>
     <use x="1265.449219" xlink:href="#DejaVuSans-97"/>
     <use x="1326.728516" xlink:href="#DejaVuSans-116"/>
     <use x="1365.9375" xlink:href="#DejaVuSans-32"/>
     <use x="1397.724609" xlink:href="#DejaVuSans-116"/>
     <use x="1436.933594" xlink:href="#DejaVuSans-104"/>
     <use x="1500.3125" xlink:href="#DejaVuSans-101"/>
     <use x="1561.835938" xlink:href="#DejaVuSans-121"/>
     <use x="1621.015625" xlink:href="#DejaVuSans-32"/>
     <use x="1652.802734" xlink:href="#DejaVuSans-119"/>
     <use x="1734.589844" xlink:href="#DejaVuSans-105"/>
     <use x="1762.373047" xlink:href="#DejaVuSans-108"/>
     <use x="1790.15625" xlink:href="#DejaVuSans-108"/>
     <use x="1817.939453" xlink:href="#DejaVuSans-32"/>
     <use x="1849.726562" xlink:href="#DejaVuSans-115"/>
     <use x="1901.826172" xlink:href="#DejaVuSans-101"/>
     <use x="1963.349609" xlink:href="#DejaVuSans-101"/>
     <use x="2024.873047" xlink:href="#DejaVuSans-107"/>
     <use x="2082.783203" xlink:href="#DejaVuSans-32"/>
     <use x="2114.570312" xlink:href="#DejaVuSans-111"/>
     <use x="2175.751953" xlink:href="#DejaVuSans-117"/>
     <use x="2239.130859" xlink:href="#DejaVuSans-116"/>
     <use x="2278.339844" xlink:href="#DejaVuSans-32"/>
     <use x="2310.126953" xlink:href="#DejaVuSans-116"/>
     <use x="2349.335938" xlink:href="#DejaVuSans-114"/>
     <use x="2390.417969" xlink:href="#DejaVuSans-101"/>
     <use x="2451.941406" xlink:href="#DejaVuSans-97"/>
     <use x="2513.220703" xlink:href="#DejaVuSans-116"/>
     <use x="2552.429688" xlink:href="#DejaVuSans-109"/>
     <use x="2649.841797" xlink:href="#DejaVuSans-101"/>
     <use x="2711.365234" xlink:href="#DejaVuSans-110"/>
     <use x="2774.744141" xlink:href="#DejaVuSans-116"/>
     <use x="2813.953125" xlink:href="#DejaVuSans-63"/>
    </g>
   </g>
  </g>
 </g>
 <defs>
  <clipPath id="pae6d0c1bea">
   <rect height="326.16" width="304.363636" x="46.965625" y="49.7555"/>
  </clipPath>
 </defs>
</svg>
